<?xml version="1.0" encoding="utf-8"?>
<!-- Generator: Adobe Illustrator 16.0.0, SVG Export Plug-In . SVG Version: 6.00 Build 0)  -->
<!DOCTYPE svg PUBLIC "-//W3C//DTD SVG 1.1//EN" "http://www.w3.org/Graphics/SVG/1.1/DTD/svg11.dtd">
<svg version="1.1" xmlns="http://www.w3.org/2000/svg" xmlns:xlink="http://www.w3.org/1999/xlink" x="0px" y="0px" width="1920px"
	 height="1080px" viewBox="0 0 1920 1080" enable-background="new 0 0 1920 1080" xml:space="preserve">
<g id="BACKGROUND">
</g>
<g id="OBJECTS">
	<g>
		<g>
			<polygon fill-rule="evenodd" clip-rule="evenodd" fill="#A7BFBE" points="0.001,1079.221 139.03,940.191 177.346,940.191 
				37.539,1080 0.001,1080 			"/>
			<polygon fill-rule="evenodd" clip-rule="evenodd" fill="#A7BFBE" points="54.365,1080 152.944,981.42 218.613,981.42 
				120.032,1080 			"/>
		</g>
		<polygon fill-rule="evenodd" clip-rule="evenodd" fill="#A7BFBE" points="1919.999,111.563 1919.999,287.384 1717.387,489.998 
			1804.98,489.998 1919.999,374.979 1919.999,412.874 1772.21,560.664 1807.656,560.664 1919.999,448.318 1919.999,1079.791 
			1169.13,1079.791 1242.71,1006.211 1181.72,1006.211 1108.14,1079.791 951.709,1079.791 		"/>
		<g>
			<polygon fill-rule="evenodd" clip-rule="evenodd" fill="#A7BFBE" points="0.001,245.442 245.445,0 0.001,0 			"/>
			<polygon fill-rule="evenodd" clip-rule="evenodd" fill="#A7BFBE" points="0.001,291.277 188.898,102.382 231.535,102.382 
				0.001,333.915 			"/>
			<polygon fill-rule="evenodd" clip-rule="evenodd" fill="#A7BFBE" points="306.456,47.164 353.619,0 380.132,0 332.968,47.164 			
				"/>
		</g>
	</g>
	<g>
		<path fill-rule="evenodd" clip-rule="evenodd" fill="#FFFFFF" d="M1194.967,1080l55.264-53.555l0.078,0.085
			c26.966-3.26,62.06-5.463,90.992-9.884c11.274-1.726,22.393-3.375,32.743-8.247c16.459-7.744,32.595-23.104,47.026-49.631
			c29.185-52.833,30.463-109.984-19.137-66.821c-26.621,23.168-39.16,34.191-45.063,39.436
			c-14.202,12.619-74.994-49.887-56.893-66.274c6.336-5.735,18.692-17.026,42.786-39.229c48.351-44.559-8.596-49.564-64.314-26.359
			c-26.784,10.953-43.548,24.586-53.266,39.352c-6.296,9.564-8.788,18.365-11.809,29.199c-8.054,28.898-14.313,65.976-20.726,93.612
			L1067.543,1080h44.126l73.58-73.58l26.901,23.179L1162.582,1080H1194.967z"/>
	</g>
	<g>
		<path fill-rule="evenodd" clip-rule="evenodd" fill="#FFFFFF" d="M1344.242,145.766c1.772,0.465,3.514,1.049,5.208,1.752
			c1.697,0.703,3.344,1.525,4.93,2.451l7.444-4.64c1.189-0.74,2.685-0.569,3.674,0.419l7.588,7.588
			c0.99,0.99,1.161,2.486,0.42,3.674l-4.64,7.442c0.937,1.583,1.748,3.235,2.452,4.933c0.701,1.693,1.285,3.435,1.747,5.207
			l8.545,1.981c1.362,0.316,2.301,1.496,2.301,2.895v10.733c0,1.4-0.938,2.579-2.301,2.896l-8.54,1.979
			c-0.467,1.774-1.051,3.517-1.754,5.21c-0.703,1.697-1.525,3.344-2.45,4.93l4.642,7.444c0.739,1.188,0.568,2.685-0.42,3.673
			l-7.59,7.589c-0.989,0.99-2.484,1.161-3.674,0.419l-7.443-4.641c-1.581,0.936-3.233,1.747-4.93,2.451
			c-1.694,0.702-3.435,1.286-5.209,1.75l-1.981,8.545c-0.316,1.362-1.495,2.299-2.895,2.299h-10.733
			c-1.399,0-2.579-0.937-2.896-2.299l-1.979-8.541c-1.773-0.467-3.514-1.051-5.207-1.754c-1.699-0.702-3.346-1.524-4.933-2.451
			l-7.443,4.641c-1.188,0.742-2.685,0.571-3.673-0.421l-7.588-7.587c-0.99-0.988-1.161-2.485-0.421-3.673l4.64-7.443
			c-0.936-1.581-1.746-3.233-2.449-4.93c-0.703-1.692-1.287-3.436-1.75-5.209l-8.545-1.981c-1.362-0.316-2.301-1.495-2.301-2.896
			v-10.733c0-1.398,0.938-2.578,2.301-2.895l8.541-1.979c0.467-1.774,1.053-3.517,1.754-5.21c0.703-1.696,1.523-3.346,2.451-4.932
			l-4.642-7.442c-0.74-1.188-0.569-2.684,0.421-3.674l7.588-7.588c0.988-0.988,2.484-1.159,3.673-0.42l7.442,4.641
			c1.581-0.937,3.234-1.748,4.931-2.451c1.693-0.703,3.436-1.285,5.207-1.748l1.982-8.546c0.316-1.362,1.496-2.301,2.896-2.301
			h10.733c1.399,0,2.578,0.938,2.895,2.301L1344.242,145.766L1344.242,145.766z M1318.2,169.036
			c-4.205,4.205-6.543,9.851-6.543,15.8c0,5.948,2.337,11.593,6.543,15.799c4.206,4.205,9.851,6.544,15.8,6.544
			s11.593-2.34,15.8-6.545c4.205-4.205,6.543-9.851,6.543-15.798c0-5.949-2.338-11.594-6.543-15.8
			c-4.207-4.207-9.851-6.543-15.8-6.543S1322.406,164.829,1318.2,169.036z"/>
		<path fill-rule="evenodd" clip-rule="evenodd" fill="#FFFFFF" d="M1343.268,148.583c-0.899-0.23-1.645-0.944-1.866-1.913
			l-2.035-8.775h-10.733l-2.001,8.629c-0.163,0.973-0.883,1.805-1.9,2.063c-1.736,0.443-3.424,1.003-5.044,1.676
			c-1.627,0.676-3.207,1.466-4.729,2.366c-0.803,0.494-1.847,0.527-2.7-0.005l-7.656-4.773l-7.589,7.587l4.756,7.627
			c0.504,0.789,0.557,1.828,0.049,2.688c-0.911,1.534-1.711,3.13-2.391,4.771c-0.672,1.622-1.233,3.31-1.68,5.045
			c-0.23,0.901-0.945,1.645-1.914,1.866l-8.775,2.035v10.733l8.631,2.002c0.971,0.164,1.803,0.883,2.061,1.9
			c0.444,1.736,1.004,3.423,1.678,5.045c0.674,1.626,1.464,3.206,2.365,4.728c0.494,0.801,0.526,1.847-0.006,2.699l-4.773,7.656
			l7.589,7.59l7.627-4.756c0.788-0.506,1.825-0.558,2.688-0.048c1.535,0.91,3.13,1.709,4.771,2.391
			c1.622,0.672,3.308,1.233,5.044,1.68c0.9,0.229,1.644,0.943,1.867,1.912l2.034,8.775h10.733l2.001-8.629
			c0.164-0.972,0.883-1.805,1.9-2.063c1.736-0.441,3.424-1.004,5.045-1.677c1.626-0.674,3.209-1.464,4.729-2.365
			c0.801-0.493,1.846-0.525,2.698,0.006l7.658,4.774l7.588-7.59l-4.756-7.627c-0.503-0.789-0.557-1.826-0.048-2.688
			c0.91-1.533,1.711-3.128,2.391-4.769c0.672-1.622,1.233-3.309,1.68-5.045c0.229-0.901,0.943-1.645,1.914-1.867l8.774-2.035
			v-10.733l-8.63-2.002c-0.972-0.163-1.804-0.882-2.062-1.898c-0.443-1.736-1.005-3.424-1.676-5.044
			c-0.675-1.627-1.467-3.208-2.366-4.729c-0.495-0.803-0.526-1.847,0.006-2.702l4.772-7.656l-7.588-7.587l-7.628,4.755
			c-0.788,0.504-1.826,0.557-2.688,0.049c-1.534-0.911-3.129-1.71-4.77-2.392C1346.691,149.589,1345.004,149.029,1343.268,148.583
			L1343.268,148.583z M1316.1,166.935c4.58-4.581,10.91-7.413,17.9-7.413c6.989,0,13.319,2.832,17.9,7.413
			c4.578,4.58,7.414,10.91,7.414,17.901c0,6.989-2.836,13.317-7.414,17.898c-4.581,4.582-10.911,7.415-17.9,7.415
			c-6.99,0-13.32-2.835-17.901-7.414c-4.579-4.582-7.413-10.91-7.413-17.899C1308.686,177.845,1311.518,171.515,1316.1,166.935z"/>
	</g>
	<path fill-rule="evenodd" clip-rule="evenodd" fill="#FFFFFF" d="M1830.944,713.902c1.754,0.519,3.489,1.135,5.196,1.843
		c1.697,0.704,3.358,1.497,4.974,2.377l8.566-5.34c1.029-0.643,2.202-0.888,3.337-0.757c1.143,0.129,2.23,0.635,3.086,1.49
		l10.564,10.563c0.854,0.855,1.359,1.944,1.491,3.086c0.128,1.136-0.116,2.308-0.76,3.337l-5.34,8.565
		c0.881,1.616,1.674,3.275,2.379,4.975c0.707,1.708,1.323,3.441,1.842,5.195l9.812,2.275c1.189,0.275,2.195,0.933,2.906,1.826
		c0.715,0.9,1.131,2.026,1.131,3.235v14.94c0,1.207-0.416,2.335-1.131,3.235c-0.71,0.895-1.717,1.551-2.906,1.826l-9.812,2.276
		c-0.519,1.754-1.135,3.488-1.844,5.196c-0.704,1.698-1.497,3.358-2.377,4.973l5.34,8.565c0.644,1.03,0.888,2.203,0.76,3.337
		c-0.132,1.141-0.635,2.23-1.491,3.088l-10.564,10.563c-0.853,0.853-1.942,1.355-3.086,1.487c-1.137,0.132-2.308-0.113-3.337-0.755
		l-8.566-5.341c-1.615,0.879-3.276,1.673-4.974,2.378c-1.707,0.707-3.441,1.323-5.196,1.842l-2.276,9.813
		c-0.275,1.188-0.93,2.194-1.826,2.905c-0.898,0.716-2.026,1.13-3.234,1.13h-14.939c-1.209,0-2.336-0.414-3.236-1.13
		c-0.895-0.711-1.551-1.72-1.825-2.905l-2.275-9.813c-1.754-0.519-3.489-1.133-5.195-1.841c-1.698-0.704-3.36-1.499-4.975-2.379
		l-8.566,5.341c-1.029,0.642-2.2,0.887-3.337,0.758l-0.166-0.023c-1.075-0.159-2.096-0.655-2.907-1.467l-0.006-0.006l-0.007,0.006
		l-10.565-10.563c-0.087-0.089-0.167-0.181-0.241-0.273c-0.707-0.809-1.127-1.791-1.246-2.814c-0.131-1.135,0.114-2.308,0.756-3.337
		l5.341-8.565c-0.882-1.614-1.676-3.274-2.379-4.973c-0.709-1.708-1.323-3.442-1.843-5.196l-9.812-2.276
		c-1.187-0.273-2.194-0.932-2.906-1.826c-0.716-0.9-1.13-2.028-1.13-3.235v-14.94c0-1.209,0.414-2.335,1.13-3.235
		c0.714-0.896,1.718-1.551,2.906-1.826l9.812-2.275c0.52-1.754,1.137-3.489,1.844-5.196c0.705-1.698,1.498-3.359,2.378-4.974
		l-5.341-8.565c-0.642-1.029-0.887-2.201-0.759-3.337l0.024-0.166c0.159-1.074,0.655-2.097,1.466-2.908l0.007-0.006l-0.007-0.006
		l10.565-10.563c0.856-0.856,1.946-1.361,3.086-1.49c1.137-0.131,2.308,0.114,3.337,0.757l8.566,5.34
		c1.614-0.88,3.276-1.673,4.972-2.377c1.707-0.708,3.444-1.324,5.198-1.843l2.275-9.812c0.274-1.188,0.931-2.194,1.825-2.906
		c0.9-0.715,2.027-1.129,3.236-1.129h14.939c1.208,0,2.336,0.414,3.234,1.129c0.896,0.712,1.551,1.718,1.826,2.906L1830.944,713.902
		L1830.944,713.902z M1833.725,721.563c-1.992-0.826-4.064-1.517-6.198-2.061v-0.004c-1.107-0.284-2.021-1.159-2.293-2.352
		l-2.502-10.781h-13.189l-2.458,10.602c-0.201,1.194-1.086,2.218-2.335,2.535c-2.134,0.544-4.207,1.234-6.198,2.061
		c-1.999,0.827-3.939,1.8-5.81,2.906c-0.985,0.607-2.271,0.646-3.319-0.006l-9.408-5.866l-9.322,9.323l5.841,9.372
		c0.62,0.97,0.687,2.245,0.062,3.304c-1.119,1.883-2.102,3.843-2.938,5.86c-0.826,1.991-1.516,4.065-2.061,6.199l-0.006-0.001
		c-0.281,1.107-1.16,2.021-2.349,2.294l-10.784,2.501v13.19l10.604,2.458c1.194,0.202,2.217,1.085,2.534,2.334
		c0.545,2.134,1.232,4.207,2.06,6.199c0.827,1.999,1.8,3.941,2.906,5.809c0.607,0.985,0.646,2.27-0.006,3.319l-5.864,9.407
		l9.322,9.326l9.373-5.845c0.969-0.62,2.244-0.684,3.302-0.059c1.885,1.118,3.845,2.102,5.862,2.938
		c1.993,0.826,4.064,1.517,6.198,2.059v0.006c1.107,0.282,2.021,1.159,2.293,2.35l2.5,10.783h13.189l2.46-10.604
		c0.201-1.193,1.086-2.217,2.335-2.534c2.134-0.544,4.206-1.233,6.198-2.06c2-0.828,3.942-1.801,5.81-2.906
		c0.985-0.606,2.27-0.646,3.319,0.006l9.407,5.867l9.323-9.326l-5.843-9.372c-0.619-0.969-0.686-2.244-0.06-3.303
		c1.119-1.884,2.102-3.842,2.937-5.858c0.826-1.994,1.517-4.067,2.062-6.201l0.006,0.002c0.281-1.107,1.158-2.022,2.348-2.295
		l10.783-2.499v-13.19l-10.604-2.459c-1.194-0.202-2.217-1.085-2.533-2.335c-0.545-2.134-1.233-4.205-2.06-6.198
		c-0.828-1.998-1.802-3.94-2.908-5.811c-0.607-0.985-0.645-2.269,0.007-3.318l5.865-9.408l-9.323-9.323l-9.372,5.844
		c-0.969,0.619-2.244,0.685-3.303,0.059C1837.7,723.381,1835.74,722.398,1833.725,721.563L1833.725,721.563z M1816.138,739.25
		c-6.848,0-13.047,2.775-17.533,7.262s-7.261,10.687-7.261,17.533s2.774,13.046,7.261,17.533c4.486,4.485,10.686,7.261,17.533,7.261
		s13.047-2.775,17.532-7.262c4.487-4.486,7.262-10.686,7.262-17.532s-2.774-13.047-7.262-17.533
		C1829.185,742.025,1822.985,739.25,1816.138,739.25L1816.138,739.25z M1794.141,742.051c-5.628,5.627-9.109,13.404-9.109,21.994
		c0,8.589,3.482,16.365,9.109,21.995c5.631,5.629,13.408,9.11,21.997,9.11c8.588,0,16.366-3.481,21.995-9.11
		c5.628-5.628,9.109-13.406,9.109-21.995c0-8.59-3.481-16.367-9.109-21.994c-5.629-5.63-13.407-9.112-21.995-9.112
		C1807.549,732.938,1799.771,736.421,1794.141,742.051z"/>
	<g>
		<path fill-rule="evenodd" clip-rule="evenodd" fill="#C8DDDB" d="M1762.814,877.821c1.774,0.466,3.515,1.052,5.209,1.753
			c1.696,0.703,3.343,1.524,4.929,2.452l7.444-4.641c1.189-0.742,2.686-0.57,3.674,0.42l7.588,7.587
			c0.99,0.99,1.161,2.486,0.42,3.673l-4.64,7.445c0.937,1.581,1.748,3.233,2.452,4.931c0.702,1.693,1.285,3.434,1.747,5.207
			l8.547,1.981c1.362,0.315,2.3,1.496,2.3,2.895v10.735c0,1.396-0.938,2.577-2.3,2.893l-8.542,1.98
			c-0.467,1.774-1.05,3.517-1.754,5.209c-0.703,1.697-1.523,3.345-2.45,4.93l4.642,7.445c0.74,1.188,0.568,2.685-0.42,3.674
			l-7.59,7.588c-0.988,0.988-2.484,1.16-3.674,0.42l-7.441-4.642c-1.581,0.937-3.235,1.748-4.932,2.45
			c-1.692,0.703-3.435,1.287-5.207,1.751l-1.982,8.544c-0.315,1.363-1.496,2.301-2.895,2.301h-10.733c-1.4,0-2.58-0.938-2.895-2.301
			l-1.981-8.54c-1.771-0.466-3.514-1.051-5.207-1.753c-1.699-0.704-3.346-1.524-4.932-2.452l-7.444,4.642
			c-1.188,0.74-2.685,0.568-3.673-0.42l-7.588-7.589c-0.988-0.99-1.161-2.485-0.421-3.673l4.64-7.443
			c-0.935-1.58-1.744-3.234-2.449-4.932c-0.701-1.692-1.287-3.434-1.748-5.206l-8.547-1.983c-1.362-0.315-2.299-1.496-2.299-2.893
			v-10.735c0-1.398,0.937-2.579,2.299-2.895l8.541-1.981c0.467-1.771,1.053-3.514,1.754-5.208c0.705-1.697,1.525-3.345,2.453-4.93
			l-4.644-7.445c-0.74-1.187-0.567-2.683,0.421-3.673l7.588-7.587c0.988-0.99,2.484-1.162,3.673-0.422l7.443,4.642
			c1.581-0.937,3.233-1.747,4.932-2.451c1.691-0.701,3.434-1.286,5.208-1.748l1.981-8.546c0.314-1.363,1.494-2.3,2.895-2.3h10.733
			c1.398,0,2.579,0.937,2.895,2.3L1762.814,877.821L1762.814,877.821z M1736.773,901.092c-4.205,4.205-6.544,9.85-6.544,15.799
			c0,5.948,2.338,11.595,6.543,15.8c4.206,4.206,9.851,6.544,15.801,6.544c5.948,0,11.594-2.338,15.799-6.544
			c4.206-4.207,6.544-9.852,6.544-15.8c0-5.949-2.338-11.592-6.544-15.799c-4.207-4.205-9.851-6.544-15.799-6.544
			C1746.623,894.548,1740.979,896.887,1736.773,901.092z"/>
		<path fill-rule="evenodd" clip-rule="evenodd" fill="#C8DDDB" d="M1761.84,880.638c-0.899-0.229-1.644-0.941-1.865-1.911
			l-2.035-8.775h-10.733l-2.002,8.629c-0.163,0.971-0.883,1.805-1.9,2.063c-1.736,0.442-3.422,1.005-5.044,1.677
			c-1.627,0.673-3.207,1.464-4.729,2.366c-0.802,0.492-1.847,0.524-2.699-0.006l-7.657-4.773l-7.589,7.588l4.756,7.628
			c0.506,0.788,0.559,1.826,0.049,2.687c-0.911,1.534-1.709,3.129-2.39,4.77c-0.673,1.622-1.234,3.309-1.681,5.044
			c-0.229,0.901-0.942,1.646-1.912,1.867l-8.775,2.035v10.735l8.629,2c0.971,0.164,1.803,0.883,2.061,1.898
			c0.444,1.736,1.006,3.424,1.679,5.046c0.673,1.627,1.464,3.208,2.364,4.728c0.494,0.803,0.526,1.846-0.004,2.701l-4.775,7.656
			l7.589,7.589l7.629-4.756c0.788-0.505,1.826-0.557,2.687-0.05c1.534,0.912,3.129,1.711,4.77,2.392
			c1.623,0.673,3.308,1.233,5.044,1.681c0.901,0.23,1.644,0.943,1.867,1.912l2.035,8.774h10.733l2.002-8.629
			c0.162-0.973,0.881-1.805,1.898-2.063c1.737-0.443,3.424-1.005,5.046-1.676c1.627-0.675,3.208-1.467,4.728-2.365
			c0.803-0.494,1.846-0.526,2.701,0.006l7.656,4.773l7.587-7.589l-4.754-7.627c-0.505-0.789-0.557-1.826-0.05-2.688
			c0.912-1.533,1.711-3.128,2.392-4.769c0.673-1.624,1.232-3.31,1.679-5.046c0.23-0.901,0.945-1.646,1.914-1.867l8.775-2.033
			v-10.735l-8.631-2c-0.971-0.166-1.803-0.885-2.062-1.9c-0.443-1.737-1.003-3.423-1.676-5.045
			c-0.675-1.628-1.467-3.207-2.365-4.729c-0.494-0.8-0.527-1.847,0.005-2.699l4.772-7.656l-7.587-7.588l-7.627,4.756
			c-0.79,0.504-1.826,0.557-2.688,0.048c-1.535-0.912-3.131-1.711-4.771-2.391C1765.264,881.647,1763.577,881.085,1761.84,880.638
			L1761.84,880.638z M1734.674,898.992c4.58-4.581,10.908-7.415,17.899-7.415c6.99,0,13.319,2.834,17.9,7.415
			c4.579,4.58,7.413,10.909,7.413,17.898c0,6.99-2.834,13.32-7.413,17.901c-4.581,4.58-10.91,7.414-17.9,7.414
			c-6.991,0-13.319-2.834-17.899-7.414c-4.581-4.581-7.416-10.911-7.416-17.901C1727.258,909.901,1730.092,903.572,1734.674,898.992
			z"/>
	</g>
	<path fill-rule="evenodd" clip-rule="evenodd" fill="#FFFFFF" d="M1443.027,124.226c1.074,0.283,2.133,0.638,3.158,1.064
		c1.029,0.426,2.03,0.925,2.991,1.487l4.515-2.815c0.721-0.449,1.628-0.345,2.229,0.255l4.602,4.601
		c0.601,0.601,0.705,1.508,0.256,2.229l-2.815,4.515c0.568,0.96,1.062,1.963,1.487,2.992c0.426,1.026,0.779,2.081,1.061,3.157
		l5.183,1.203c0.827,0.191,1.396,0.905,1.396,1.754v6.511c0,0.85-0.568,1.564-1.396,1.757l-5.181,1.2
		c-0.283,1.076-0.637,2.133-1.063,3.16c-0.428,1.029-0.925,2.027-1.487,2.989l2.815,4.517c0.449,0.719,0.345,1.626-0.256,2.227
		l-4.602,4.602c-0.601,0.602-1.508,0.705-2.229,0.255l-4.514-2.814c-0.959,0.566-1.963,1.06-2.992,1.485
		c-1.025,0.427-2.081,0.781-3.156,1.063l-1.203,5.183c-0.191,0.826-0.907,1.395-1.757,1.395h-6.509c-0.85,0-1.565-0.568-1.756-1.395
		l-1.201-5.18c-1.075-0.282-2.132-0.638-3.159-1.063c-1.029-0.428-2.03-0.925-2.991-1.487l-4.515,2.814
		c-0.721,0.45-1.628,0.347-2.228-0.255l-4.603-4.602c-0.601-0.601-0.704-1.508-0.255-2.227l2.814-4.516
		c-0.568-0.958-1.058-1.961-1.487-2.99c-0.425-1.027-0.778-2.084-1.06-3.16l-5.182-1.2c-0.828-0.192-1.396-0.907-1.396-1.757v-6.511
		c0-0.849,0.568-1.563,1.396-1.754l5.181-1.202c0.281-1.075,0.636-2.132,1.063-3.16c0.428-1.028,0.923-2.027,1.487-2.99
		l-2.816-4.515c-0.449-0.719-0.346-1.628,0.255-2.229l4.603-4.601c0.6-0.6,1.507-0.704,2.228-0.256l4.514,2.814
		c0.96-0.566,1.963-1.06,2.992-1.485c1.026-0.427,2.083-0.78,3.158-1.062l1.202-5.184c0.19-0.826,0.906-1.395,1.756-1.395h6.509
		c0.85,0,1.565,0.568,1.757,1.395L1443.027,124.226z"/>
</g>
<g id="TEXTS">
</g>
</svg>
