<?xml version="1.0" encoding="utf-8"?>
<!-- Generator: Adobe Illustrator 16.0.0, SVG Export Plug-In . SVG Version: 6.00 Build 0)  -->
<!DOCTYPE svg PUBLIC "-//W3C//DTD SVG 1.1//EN" "http://www.w3.org/Graphics/SVG/1.1/DTD/svg11.dtd">
<svg version="1.1" xmlns="http://www.w3.org/2000/svg" xmlns:xlink="http://www.w3.org/1999/xlink" x="0px" y="0px" width="820px"
	 height="312px" viewBox="0 0 820 312" enable-background="new 0 0 820 312" xml:space="preserve">
<g id="BACKGROUND">
	<rect fill-rule="evenodd" clip-rule="evenodd" fill="#C8DDDB" width="820" height="312"/>
</g>
<g id="OBJECTS">
	<polygon fill-rule="evenodd" clip-rule="evenodd" fill="#FFFFFF" points="508.978,312 616.988,203.991 616.988,243.024 
		548.012,312 	"/>
	<polygon fill-rule="evenodd" clip-rule="evenodd" fill="#FFFFFF" points="0,224.698 224.696,0 0,0 	"/>
	<polygon fill-rule="evenodd" clip-rule="evenodd" fill="#FFFFFF" points="220.521,40.884 261.403,0 280.489,0 239.604,40.884 	"/>
	<polygon fill-rule="evenodd" clip-rule="evenodd" fill="#FFFFFF" points="743.118,25.735 768.854,0 807.887,0 743.118,64.769 	"/>
	<polygon fill-rule="evenodd" clip-rule="evenodd" fill="#FFFFFF" points="709.531,116.327 820,5.86 820,24.945 728.615,116.327 	
		"/>
	<g>
		<polygon fill-rule="evenodd" clip-rule="evenodd" fill="#A7BFBE" points="820,160.784 668.784,312 820,312 		"/>
		<polygon fill-rule="evenodd" clip-rule="evenodd" fill="#A7BFBE" points="820,143.52 674.542,288.978 648.272,288.978 
			820,117.251 		"/>
		<polygon fill-rule="evenodd" clip-rule="evenodd" fill="#A7BFBE" points="722.827,203.251 614.079,312 601.235,312 
			709.983,203.251 		"/>
	</g>
	<g>
		<path fill-rule="evenodd" clip-rule="evenodd" fill="#44424E" d="M820,56.603l-70.984,68.79l-0.048-0.053
			c-16.614,2.008-38.234,3.366-56.06,6.09c-6.945,1.062-13.795,2.077-20.173,5.08c-10.142,4.771-20.083,14.234-28.973,30.577
			c-17.98,32.55-18.77,67.76,11.79,41.167c16.401-14.272,24.126-21.064,27.763-24.296c8.75-7.774,46.204,30.734,35.052,40.833
			c-3.904,3.533-11.519,10.488-26.36,24.168c-29.788,27.451,5.295,30.536,39.624,16.238c16.499-6.747,26.828-15.146,32.815-24.243
			c3.879-5.892,5.415-11.315,7.274-17.989c4.963-17.805,8.817-40.648,12.769-57.675L820,131.709V56.603z"/>
		<path fill-rule="evenodd" clip-rule="evenodd" fill="#C8DDDB" d="M820,109.654l-55.21,52.287
			c-4.416,4.183-11.314,3.439-15.613-0.859v-0.001c-4.057-4.53-3.67-11.555,0.859-15.612L820,78.646V109.654z"/>
	</g>
	<polygon fill-rule="evenodd" clip-rule="evenodd" fill="#A7BFBE" points="0,115.232 115.231,0 0,0 	"/>
	<polygon fill-rule="evenodd" clip-rule="evenodd" fill="#A7BFBE" points="0,129.928 45.275,84.653 45.275,109.909 0,155.187 	"/>
	<g>
		<path fill-rule="evenodd" clip-rule="evenodd" fill="#FFFFFF" d="M711.791,83.706c0.442,0.327,0.864,0.685,1.261,1.07
			c0.395,0.385,0.765,0.798,1.104,1.234l2.598-0.469c0.414-0.074,0.813,0.14,0.979,0.527l1.275,2.965
			c0.166,0.387,0.048,0.823-0.291,1.073l-2.126,1.563c0.084,0.547,0.127,1.099,0.134,1.651c0.008,0.551-0.023,1.104-0.091,1.649
			l2.167,1.506c0.346,0.239,0.477,0.674,0.319,1.064l-1.195,2.999c-0.155,0.391-0.55,0.616-0.964,0.552l-2.607-0.396
			c-0.327,0.443-0.687,0.864-1.07,1.259c-0.386,0.396-0.799,0.765-1.234,1.104l0.468,2.598c0.075,0.413-0.141,0.813-0.526,0.979
			l-2.967,1.274c-0.386,0.167-0.823,0.047-1.071-0.292l-1.563-2.125c-0.546,0.085-1.098,0.126-1.65,0.136
			c-0.552,0.007-1.104-0.024-1.65-0.093l-1.505,2.168c-0.241,0.345-0.676,0.475-1.066,0.319l-2.997-1.196
			c-0.392-0.155-0.618-0.549-0.554-0.965l0.398-2.606c-0.443-0.328-0.864-0.686-1.26-1.071c-0.396-0.386-0.765-0.798-1.105-1.233
			l-2.597,0.468c-0.414,0.075-0.813-0.141-0.979-0.527l-1.275-2.965c-0.166-0.388-0.047-0.823,0.291-1.073l2.127-1.563
			c-0.086-0.546-0.129-1.099-0.136-1.65s0.023-1.104,0.091-1.65l-2.166-1.506c-0.345-0.239-0.477-0.673-0.319-1.064l1.194-2.999
			c0.155-0.391,0.551-0.616,0.965-0.552l2.607,0.397c0.328-0.443,0.686-0.865,1.071-1.26c0.385-0.396,0.797-0.765,1.234-1.104
			l-0.468-2.597c-0.075-0.414,0.14-0.813,0.525-0.98l2.967-1.273c0.386-0.166,0.823-0.048,1.071,0.291l1.563,2.126
			c0.547-0.086,1.099-0.127,1.652-0.136c0.55-0.008,1.102,0.022,1.648,0.093l1.506-2.168c0.241-0.346,0.675-0.476,1.066-0.32
			l2.999,1.196c0.391,0.155,0.615,0.549,0.552,0.965L711.791,83.706L711.791,83.706z M701.923,87.307
			c-1.644,0.706-2.926,2.022-3.588,3.685c-0.663,1.662-0.64,3.499,0.067,5.144c0.707,1.644,2.023,2.927,3.687,3.589
			c1.661,0.663,3.499,0.638,5.143-0.068c1.643-0.707,2.925-2.024,3.588-3.686c0.662-1.662,0.638-3.499-0.068-5.144
			c-0.707-1.644-2.023-2.926-3.685-3.589C705.403,86.574,703.566,86.6,701.923,87.307z"/>
		<path fill-rule="evenodd" clip-rule="evenodd" fill="#FFFFFF" d="M711.205,84.385c-0.226-0.166-0.354-0.448-0.31-0.743
			l0.409-2.678l-2.997-1.196l-1.521,2.188c-0.153,0.254-0.448,0.405-0.761,0.364c-0.534-0.069-1.068-0.101-1.597-0.093
			c-0.528,0.007-1.058,0.052-1.584,0.134c-0.279,0.048-0.573-0.059-0.754-0.302l-1.607-2.188l-2.965,1.275l0.479,2.661
			c0.054,0.276-0.048,0.572-0.286,0.756c-0.425,0.327-0.825,0.685-1.198,1.066c-0.369,0.379-0.715,0.788-1.032,1.222
			c-0.164,0.227-0.446,0.355-0.741,0.309l-2.679-0.408l-1.197,2.998l2.19,1.521c0.251,0.154,0.405,0.447,0.364,0.76
			c-0.07,0.535-0.103,1.068-0.095,1.597c0.007,0.53,0.052,1.059,0.134,1.584c0.05,0.279-0.06,0.575-0.302,0.754l-2.187,1.607
			l1.275,2.967l2.659-0.479c0.277-0.053,0.573,0.047,0.758,0.285c0.326,0.427,0.684,0.826,1.066,1.2
			c0.378,0.367,0.785,0.713,1.222,1.031c0.227,0.165,0.354,0.446,0.309,0.742l-0.409,2.679l2.999,1.195l1.52-2.188
			c0.154-0.253,0.448-0.405,0.761-0.364c0.534,0.069,1.068,0.101,1.598,0.093c0.528-0.007,1.059-0.052,1.584-0.134
			c0.278-0.048,0.573,0.059,0.754,0.303l1.607,2.188l2.965-1.275l-0.479-2.661c-0.054-0.277,0.048-0.572,0.285-0.756
			c0.426-0.327,0.825-0.684,1.198-1.066c0.37-0.379,0.715-0.787,1.032-1.223c0.165-0.226,0.447-0.354,0.743-0.308l2.678,0.409
			l1.196-2.999l-2.188-1.521c-0.254-0.154-0.407-0.447-0.366-0.76c0.071-0.535,0.102-1.067,0.095-1.597
			c-0.008-0.529-0.052-1.059-0.134-1.584c-0.049-0.279,0.059-0.575,0.302-0.754l2.186-1.607l-1.273-2.966l-2.661,0.479
			c-0.276,0.052-0.573-0.048-0.755-0.287c-0.329-0.426-0.685-0.825-1.068-1.199C712.05,85.048,711.641,84.703,711.205,84.385
			L711.205,84.385z M701.569,86.485c1.791-0.77,3.876-0.855,5.828-0.077c1.953,0.779,3.405,2.275,4.176,4.065
			c0.768,1.79,0.855,3.874,0.076,5.826c-0.778,1.954-2.275,3.406-4.064,4.176c-1.79,0.77-3.874,0.856-5.828,0.078
			c-1.952-0.779-3.406-2.275-4.176-4.066c-0.769-1.79-0.855-3.874-0.077-5.827C698.283,88.707,699.779,87.255,701.569,86.485z"/>
	</g>
	<g>
		<path fill-rule="evenodd" clip-rule="evenodd" fill="#FFFFFF" d="M713.895,20.865c1.021,0.268,2.021,0.604,2.994,1.007
			c0.977,0.405,1.923,0.876,2.834,1.41l4.279-2.668c0.685-0.426,1.543-0.328,2.113,0.241l4.361,4.362
			c0.568,0.569,0.666,1.429,0.241,2.112l-2.667,4.279c0.538,0.91,1.004,1.86,1.409,2.835c0.402,0.974,0.738,1.974,1.004,2.993
			l4.914,1.14c0.782,0.181,1.321,0.859,1.321,1.664v6.17c0,0.805-0.539,1.482-1.321,1.665l-4.91,1.138
			c-0.27,1.02-0.605,2.021-1.009,2.995c-0.404,0.976-0.876,1.922-1.409,2.833l2.668,4.281c0.427,0.682,0.327,1.542-0.241,2.111
			l-4.361,4.361c-0.57,0.567-1.429,0.668-2.113,0.241l-4.277-2.667c-0.909,0.538-1.859,1.004-2.835,1.407
			c-0.973,0.404-1.975,0.74-2.995,1.006l-1.14,4.913c-0.18,0.783-0.858,1.322-1.662,1.322h-6.171c-0.804,0-1.482-0.539-1.665-1.322
			l-1.138-4.909c-1.02-0.269-2.02-0.604-2.993-1.009c-0.978-0.404-1.924-0.876-2.835-1.41l-4.279,2.669
			c-0.684,0.427-1.543,0.326-2.112-0.241l-4.362-4.361c-0.567-0.57-0.666-1.43-0.241-2.111l2.669-4.279
			c-0.54-0.909-1.006-1.859-1.409-2.835c-0.404-0.974-0.739-1.975-1.006-2.994l-4.913-1.139c-0.782-0.183-1.322-0.86-1.322-1.665
			v-6.17c0-0.805,0.54-1.482,1.322-1.664l4.909-1.139c0.271-1.019,0.605-2.021,1.01-2.994c0.403-0.976,0.877-1.922,1.409-2.834
			l-2.669-4.279c-0.425-0.682-0.326-1.543,0.241-2.112l4.362-4.362c0.569-0.569,1.429-0.667,2.112-0.242l4.278,2.667
			c0.908-0.538,1.858-1.004,2.836-1.409c0.972-0.403,1.974-0.738,2.991-1.004l1.14-4.914c0.183-0.783,0.861-1.322,1.665-1.322h6.171
			c0.804,0,1.482,0.539,1.662,1.322L713.895,20.865L713.895,20.865z M698.924,34.242c-2.416,2.417-3.761,5.662-3.761,9.082
			s1.345,6.665,3.761,9.083c2.419,2.418,5.664,3.762,9.084,3.762c3.419,0,6.664-1.345,9.082-3.762
			c2.417-2.419,3.762-5.663,3.762-9.083s-1.345-6.664-3.762-9.082c-2.418-2.417-5.663-3.762-9.082-3.762
			C704.588,30.48,701.343,31.825,698.924,34.242z"/>
		<path fill-rule="evenodd" clip-rule="evenodd" fill="#FFFFFF" d="M713.336,22.484c-0.519-0.132-0.946-0.542-1.073-1.099
			l-1.17-5.044h-6.171l-1.15,4.96c-0.095,0.559-0.507,1.038-1.093,1.186c-0.997,0.255-1.967,0.577-2.899,0.964
			c-0.936,0.387-1.843,0.842-2.718,1.359c-0.461,0.284-1.062,0.303-1.553-0.002l-4.4-2.744l-4.363,4.362l2.734,4.385
			c0.289,0.453,0.319,1.05,0.028,1.545c-0.525,0.881-0.984,1.799-1.375,2.742c-0.386,0.932-0.709,1.902-0.967,2.9
			c-0.132,0.518-0.541,0.945-1.099,1.073l-5.045,1.17v6.17l4.961,1.151c0.558,0.094,1.036,0.507,1.187,1.092
			c0.254,0.999,0.575,1.968,0.963,2.9c0.388,0.935,0.841,1.843,1.359,2.718c0.283,0.46,0.304,1.061-0.002,1.552l-2.745,4.401
			l4.363,4.362l4.385-2.734c0.451-0.289,1.05-0.319,1.545-0.026c0.881,0.523,1.799,0.982,2.741,1.373
			c0.933,0.388,1.902,0.709,2.899,0.967c0.518,0.132,0.946,0.543,1.073,1.099l1.17,5.045h6.171l1.15-4.961
			c0.094-0.558,0.507-1.036,1.091-1.185c0.998-0.256,1.97-0.579,2.9-0.965c0.937-0.387,1.845-0.843,2.719-1.359
			c0.461-0.283,1.061-0.302,1.552,0.002l4.402,2.745l4.362-4.362l-2.734-4.384c-0.29-0.453-0.32-1.05-0.027-1.545
			c0.523-0.882,0.982-1.799,1.374-2.742c0.386-0.933,0.709-1.901,0.966-2.9c0.132-0.518,0.541-0.945,1.099-1.073l5.046-1.17v-6.17
			l-4.962-1.15c-0.558-0.095-1.036-0.508-1.186-1.092c-0.254-0.998-0.577-1.967-0.963-2.899c-0.388-0.936-0.844-1.844-1.359-2.718
			c-0.284-0.461-0.304-1.062,0.002-1.553l2.745-4.401l-4.362-4.362l-4.385,2.733c-0.453,0.29-1.05,0.32-1.545,0.028
			c-0.882-0.524-1.798-0.983-2.743-1.375C715.302,23.063,714.332,22.741,713.336,22.484L713.336,22.484z M697.717,33.034
			c2.633-2.633,6.272-4.262,10.291-4.262c4.017,0,7.657,1.629,10.29,4.262c2.633,2.634,4.261,6.272,4.261,10.29
			c0,4.019-1.628,7.657-4.261,10.29s-6.273,4.262-10.29,4.262c-4.019,0-7.657-1.629-10.291-4.262
			c-2.633-2.634-4.262-6.271-4.262-10.29C693.455,39.306,695.084,35.668,697.717,33.034z"/>
	</g>
	<g>
		<path fill-rule="evenodd" clip-rule="evenodd" fill="#FFFFFF" d="M309.454,80.878c0.532,0.394,1.038,0.822,1.513,1.285
			c0.474,0.463,0.918,0.957,1.325,1.48l3.117-0.561c0.498-0.09,0.977,0.168,1.175,0.632l1.531,3.56
			c0.199,0.465,0.057,0.988-0.351,1.288l-2.552,1.875c0.104,0.656,0.153,1.319,0.164,1.983c0.009,0.66-0.028,1.323-0.11,1.979
			l2.6,1.808c0.415,0.289,0.572,0.809,0.385,1.278l-1.435,3.6c-0.188,0.47-0.659,0.739-1.159,0.664l-3.129-0.479
			c-0.394,0.532-0.822,1.039-1.284,1.513c-0.463,0.476-0.959,0.918-1.483,1.325l0.563,3.117c0.089,0.498-0.17,0.977-0.633,1.177
			l-3.56,1.528c-0.464,0.2-0.989,0.058-1.288-0.35l-1.877-2.551c-0.655,0.102-1.318,0.153-1.98,0.162
			c-0.661,0.01-1.323-0.028-1.98-0.11l-1.808,2.601c-0.288,0.416-0.81,0.571-1.277,0.384l-3.601-1.434
			c-0.47-0.188-0.739-0.659-0.663-1.159l0.479-3.129c-0.532-0.394-1.04-0.822-1.514-1.284c-0.475-0.463-0.918-0.959-1.326-1.481
			l-3.117,0.562c-0.496,0.089-0.976-0.168-1.175-0.633l-1.531-3.56c-0.2-0.464-0.057-0.988,0.351-1.288l2.552-1.875
			c-0.104-0.655-0.153-1.318-0.162-1.981c-0.009-0.662,0.028-1.324,0.108-1.98l-2.601-1.808c-0.414-0.289-0.571-0.809-0.384-1.278
			l1.437-3.601c0.188-0.468,0.659-0.738,1.157-0.663l3.129,0.479c0.395-0.532,0.823-1.039,1.286-1.513
			c0.463-0.476,0.957-0.919,1.48-1.326l-0.561-3.118c-0.09-0.496,0.168-0.975,0.632-1.175l3.56-1.53
			c0.463-0.199,0.988-0.057,1.288,0.35l1.875,2.552c0.656-0.102,1.318-0.153,1.981-0.162c0.662-0.009,1.323,0.028,1.98,0.11
			l1.808-2.602c0.289-0.415,0.809-0.572,1.278-0.385l3.6,1.437c0.47,0.188,0.739,0.659,0.662,1.158L309.454,80.878L309.454,80.878z
			 M297.608,85.2c-1.974,0.848-3.511,2.429-4.308,4.423c-0.795,1.995-0.767,4.201,0.082,6.175c0.849,1.972,2.43,3.512,4.424,4.308
			c1.995,0.795,4.201,0.765,6.173-0.083c1.974-0.849,3.514-2.428,4.309-4.423c0.794-1.995,0.766-4.201-0.083-6.175
			c-0.848-1.972-2.427-3.511-4.422-4.306C301.788,84.322,299.581,84.353,297.608,85.2z"/>
		<path fill-rule="evenodd" clip-rule="evenodd" fill="#FFFFFF" d="M308.75,81.693c-0.271-0.198-0.425-0.538-0.369-0.892
			l0.491-3.215l-3.601-1.436l-1.824,2.627c-0.186,0.304-0.537,0.486-0.914,0.438c-0.642-0.084-1.282-0.121-1.917-0.112
			c-0.634,0.009-1.27,0.063-1.9,0.161c-0.335,0.058-0.689-0.071-0.905-0.363l-1.929-2.625l-3.56,1.53L292.897,81
			c0.063,0.333-0.058,0.688-0.343,0.908c-0.512,0.393-0.993,0.821-1.44,1.28c-0.442,0.453-0.855,0.944-1.239,1.466
			c-0.196,0.271-0.536,0.427-0.89,0.372l-3.215-0.491l-1.436,3.599l2.625,1.825c0.304,0.186,0.488,0.538,0.438,0.913
			c-0.084,0.642-0.119,1.282-0.11,1.916c0.007,0.636,0.063,1.272,0.161,1.902c0.057,0.334-0.072,0.689-0.364,0.904l-2.624,1.931
			l1.528,3.56l3.195-0.575c0.333-0.064,0.688,0.057,0.907,0.343c0.394,0.511,0.822,0.991,1.281,1.439
			c0.453,0.443,0.944,0.855,1.466,1.238c0.271,0.198,0.426,0.536,0.37,0.891l-0.489,3.215l3.599,1.436l1.825-2.627
			c0.186-0.304,0.538-0.486,0.913-0.438c0.641,0.084,1.282,0.122,1.916,0.112c0.636-0.009,1.272-0.063,1.902-0.16
			c0.334-0.059,0.689,0.069,0.904,0.362l1.931,2.626l3.56-1.531l-0.575-3.193c-0.064-0.332,0.057-0.688,0.343-0.909
			c0.511-0.391,0.991-0.819,1.439-1.278c0.441-0.454,0.855-0.945,1.238-1.469c0.198-0.27,0.535-0.425,0.891-0.369l3.215,0.491
			l1.435-3.601l-2.625-1.824c-0.304-0.186-0.488-0.537-0.438-0.913c0.084-0.643,0.122-1.282,0.113-1.916
			c-0.009-0.636-0.063-1.271-0.161-1.902c-0.059-0.335,0.069-0.689,0.362-0.905l2.626-1.929l-1.53-3.56l-3.194,0.575
			c-0.332,0.064-0.688-0.058-0.909-0.343c-0.393-0.511-0.819-0.992-1.278-1.44C309.763,82.488,309.273,82.075,308.75,81.693
			L308.75,81.693z M297.186,84.215c2.148-0.923,4.649-1.028,6.994-0.093c2.345,0.935,4.088,2.731,5.012,4.88
			s1.027,4.651,0.093,6.994c-0.934,2.345-2.73,4.089-4.879,5.012c-2.149,0.924-4.651,1.028-6.995,0.093
			c-2.345-0.934-4.088-2.73-5.012-4.879c-0.925-2.149-1.028-4.651-0.093-6.995C293.24,86.882,295.037,85.139,297.186,84.215z"/>
	</g>
	<g>
		<path fill-rule="evenodd" clip-rule="evenodd" fill="#FFFFFF" d="M664.81,47.355c0.443,0.328,0.865,0.686,1.262,1.07
			c0.395,0.385,0.765,0.798,1.104,1.234l2.597-0.468c0.415-0.074,0.813,0.14,0.979,0.526l1.275,2.965
			c0.166,0.387,0.048,0.824-0.292,1.074l-2.127,1.563c0.086,0.547,0.129,1.099,0.136,1.651c0.007,0.551-0.023,1.103-0.091,1.649
			l2.166,1.506c0.347,0.239,0.478,0.673,0.32,1.064l-1.195,2.998c-0.155,0.392-0.548,0.616-0.964,0.554l-2.608-0.397
			c-0.328,0.442-0.686,0.864-1.069,1.259c-0.386,0.396-0.799,0.765-1.234,1.104l0.468,2.598c0.073,0.414-0.141,0.814-0.526,0.98
			l-2.967,1.274c-0.386,0.167-0.823,0.047-1.072-0.292l-1.563-2.126c-0.547,0.086-1.099,0.127-1.65,0.136
			c-0.552,0.007-1.104-0.023-1.65-0.092l-1.506,2.167c-0.24,0.345-0.675,0.476-1.064,0.32l-3-1.197
			c-0.392-0.155-0.616-0.548-0.552-0.964l0.397-2.607c-0.442-0.327-0.864-0.685-1.261-1.07c-0.395-0.385-0.765-0.799-1.104-1.234
			l-2.597,0.468c-0.415,0.075-0.813-0.14-0.979-0.526l-1.274-2.965c-0.166-0.388-0.049-0.823,0.291-1.073l2.127-1.563
			c-0.086-0.546-0.129-1.099-0.136-1.65c-0.007-0.551,0.023-1.103,0.091-1.65l-2.166-1.505c-0.347-0.239-0.476-0.674-0.32-1.064
			l1.195-3c0.155-0.39,0.55-0.615,0.966-0.552l2.606,0.398c0.328-0.443,0.686-0.865,1.069-1.26c0.386-0.396,0.799-0.766,1.234-1.105
			l-0.468-2.597c-0.073-0.414,0.141-0.813,0.526-0.979l2.967-1.274c0.386-0.166,0.823-0.048,1.072,0.291l1.563,2.127
			c0.547-0.086,1.099-0.128,1.652-0.136c0.55-0.008,1.102,0.022,1.648,0.092l1.507-2.167c0.24-0.346,0.674-0.477,1.064-0.32
			l2.999,1.195c0.392,0.156,0.616,0.55,0.552,0.965L664.81,47.355L664.81,47.355z M654.942,50.956
			c-1.644,0.706-2.926,2.022-3.589,3.686c-0.662,1.662-0.639,3.499,0.068,5.143c0.707,1.645,2.023,2.927,3.687,3.59
			c1.661,0.662,3.499,0.638,5.142-0.069c1.644-0.706,2.926-2.022,3.589-3.686c0.662-1.662,0.639-3.499-0.068-5.143
			c-0.707-1.645-2.023-2.926-3.685-3.589C658.423,50.226,656.585,50.25,654.942,50.956z"/>
		<path fill-rule="evenodd" clip-rule="evenodd" fill="#FFFFFF" d="M664.225,48.034c-0.228-0.165-0.354-0.447-0.31-0.742
			l0.409-2.679l-2.999-1.195l-1.52,2.188c-0.153,0.254-0.448,0.406-0.761,0.365c-0.534-0.07-1.068-0.102-1.595-0.094
			c-0.531,0.007-1.062,0.052-1.587,0.134c-0.278,0.049-0.573-0.059-0.753-0.302l-1.607-2.187l-2.965,1.273l0.479,2.662
			c0.054,0.276-0.049,0.572-0.286,0.756c-0.425,0.327-0.825,0.684-1.198,1.066c-0.37,0.378-0.715,0.787-1.032,1.222
			c-0.165,0.227-0.446,0.354-0.741,0.309l-2.68-0.408l-1.196,2.998l2.188,1.521c0.254,0.154,0.407,0.447,0.366,0.76
			c-0.071,0.536-0.102,1.069-0.095,1.598c0.008,0.53,0.052,1.059,0.135,1.584c0.05,0.279-0.06,0.575-0.302,0.754l-2.187,1.607
			l1.273,2.966l2.661-0.479c0.277-0.053,0.573,0.048,0.758,0.286c0.326,0.426,0.684,0.826,1.065,1.199
			c0.379,0.368,0.786,0.714,1.222,1.031c0.228,0.166,0.355,0.447,0.31,0.742l-0.409,2.68l2.999,1.194l1.52-2.188
			c0.153-0.253,0.448-0.405,0.761-0.364c0.534,0.069,1.068,0.1,1.597,0.093c0.529-0.008,1.06-0.052,1.585-0.134
			c0.278-0.049,0.573,0.059,0.753,0.304l1.607,2.186l2.966-1.275l-0.479-2.661c-0.054-0.276,0.049-0.571,0.286-0.755
			c0.425-0.327,0.827-0.685,1.198-1.066c0.37-0.379,0.715-0.788,1.032-1.222c0.164-0.228,0.447-0.355,0.743-0.31l2.678,0.409
			l1.196-2.999l-2.188-1.521c-0.254-0.154-0.406-0.447-0.365-0.76c0.068-0.536,0.101-1.068,0.094-1.597
			c-0.008-0.53-0.052-1.06-0.135-1.585c-0.048-0.279,0.06-0.574,0.303-0.753l2.186-1.607l-1.273-2.966l-2.661,0.479
			c-0.276,0.053-0.573-0.048-0.757-0.286c-0.327-0.426-0.685-0.826-1.066-1.198C665.069,48.697,664.66,48.353,664.225,48.034
			L664.225,48.034z M654.589,50.136c1.791-0.77,3.873-0.856,5.827-0.078c1.952,0.779,3.406,2.276,4.176,4.066
			c0.771,1.789,0.856,3.874,0.077,5.826c-0.778,1.953-2.275,3.405-4.065,4.176c-1.791,0.77-3.874,0.856-5.827,0.077
			c-1.952-0.778-3.406-2.275-4.176-4.065c-0.769-1.79-0.855-3.874-0.077-5.826C651.302,52.357,652.799,50.904,654.589,50.136z"/>
	</g>
	<path fill-rule="evenodd" clip-rule="evenodd" fill="#FFFFFF" d="M820,300.526H549.884l13.465-13.466H820V300.526L820,300.526z
		 M510.852,300.526h-57.278l13.466-13.466h57.275L510.852,300.526L510.852,300.526z M444.054,300.526l13.466-13.466h-10.786
		l-13.466,13.466H444.054L444.054,300.526z M423.748,300.526h-10.786l13.466-13.466h10.786L423.748,300.526L423.748,300.526z
		 M403.442,300.526l13.465-13.466H390.71l-16.205,13.466H403.442z"/>
	<g>
		<path fill-rule="evenodd" clip-rule="evenodd" fill="#C2D9D6" d="M787.967,247.195c1.02,0.268,2.02,0.604,2.993,1.008
			c0.977,0.403,1.924,0.876,2.835,1.409l4.279-2.668c0.684-0.426,1.543-0.327,2.112,0.24l4.362,4.363
			c0.567,0.568,0.666,1.429,0.241,2.111l-2.667,4.279c0.537,0.909,1.004,1.859,1.409,2.835c0.401,0.974,0.737,1.974,1.004,2.993
			l4.913,1.14c0.782,0.182,1.322,0.859,1.322,1.663v6.171c0,0.804-0.54,1.482-1.322,1.664l-4.91,1.138
			c-0.27,1.021-0.605,2.021-1.009,2.996s-0.875,1.921-1.409,2.832l2.669,4.281c0.427,0.683,0.326,1.542-0.241,2.111l-4.362,4.361
			c-0.569,0.568-1.429,0.667-2.112,0.241l-4.278-2.667c-0.908,0.538-1.859,1.004-2.834,1.408c-0.974,0.403-1.976,0.739-2.995,1.005
			l-1.14,4.914c-0.181,0.782-0.859,1.321-1.663,1.321h-6.171c-0.804,0-1.482-0.539-1.664-1.321l-1.138-4.91
			c-1.021-0.268-2.021-0.604-2.994-1.008c-0.977-0.405-1.923-0.876-2.834-1.41l-4.279,2.668c-0.685,0.426-1.544,0.327-2.113-0.241
			l-4.361-4.361c-0.568-0.57-0.666-1.429-0.241-2.111l2.668-4.279c-0.539-0.909-1.005-1.859-1.409-2.834
			c-0.403-0.974-0.739-1.975-1.005-2.994l-4.914-1.14c-0.782-0.182-1.321-0.86-1.321-1.664v-6.171c0-0.804,0.539-1.481,1.321-1.663
			l4.91-1.14c0.27-1.019,0.605-2.021,1.009-2.993c0.404-0.978,0.877-1.924,1.409-2.835l-2.668-4.279
			c-0.425-0.682-0.327-1.543,0.241-2.111l4.361-4.363c0.569-0.567,1.429-0.666,2.113-0.24l4.277,2.667
			c0.909-0.538,1.859-1.005,2.836-1.408c0.972-0.403,1.974-0.739,2.992-1.006l1.14-4.913c0.182-0.782,0.86-1.322,1.664-1.322h6.171
			c0.804,0,1.482,0.54,1.663,1.322L787.967,247.195L787.967,247.195z M772.996,260.572c-2.417,2.418-3.762,5.663-3.762,9.082
			c0,3.42,1.345,6.665,3.762,9.083c2.418,2.418,5.663,3.762,9.084,3.762c3.418,0,6.663-1.345,9.082-3.762
			c2.416-2.418,3.761-5.663,3.761-9.083c0-3.419-1.345-6.664-3.761-9.082c-2.419-2.417-5.664-3.763-9.082-3.763
			C778.659,256.81,775.414,258.155,772.996,260.572z"/>
		<path fill-rule="evenodd" clip-rule="evenodd" fill="#C2D9D6" d="M787.407,248.813c-0.518-0.132-0.946-0.541-1.073-1.098
			l-1.17-5.045h-6.171l-1.15,4.961c-0.094,0.558-0.507,1.036-1.093,1.186c-0.997,0.254-1.967,0.576-2.898,0.963
			c-0.937,0.388-1.844,0.842-2.719,1.36c-0.461,0.283-1.061,0.303-1.552-0.003l-4.401-2.744l-4.363,4.362l2.734,4.385
			c0.29,0.452,0.32,1.049,0.028,1.545c-0.524,0.881-0.983,1.799-1.375,2.741c-0.386,0.933-0.709,1.902-0.966,2.899
			c-0.132,0.519-0.541,0.946-1.099,1.073l-5.046,1.17v6.171l4.962,1.15c0.558,0.095,1.036,0.507,1.186,1.093
			c0.254,0.997,0.575,1.967,0.963,2.899c0.388,0.936,0.842,1.844,1.359,2.718c0.284,0.461,0.304,1.062-0.002,1.552l-2.745,4.402
			l4.363,4.362l4.385-2.734c0.452-0.29,1.051-0.32,1.545-0.027c0.881,0.523,1.799,0.982,2.742,1.374
			c0.932,0.388,1.901,0.709,2.898,0.966c0.519,0.133,0.946,0.543,1.073,1.099l1.17,5.046h6.171l1.15-4.962
			c0.095-0.558,0.507-1.036,1.091-1.185c0.999-0.255,1.971-0.578,2.901-0.964c0.936-0.388,1.845-0.843,2.718-1.36
			c0.461-0.283,1.062-0.302,1.553,0.003l4.402,2.745l4.361-4.362l-2.734-4.385c-0.289-0.453-0.319-1.05-0.026-1.544
			c0.523-0.883,0.982-1.799,1.373-2.743c0.386-0.933,0.709-1.901,0.967-2.899c0.132-0.518,0.541-0.946,1.098-1.073l5.046-1.17
			v-6.171l-4.962-1.15c-0.557-0.095-1.035-0.507-1.186-1.092c-0.254-0.998-0.577-1.968-0.963-2.9
			c-0.388-0.935-0.843-1.843-1.359-2.718c-0.284-0.461-0.304-1.062,0.002-1.553l2.745-4.4l-4.361-4.362l-4.385,2.733
			c-0.454,0.29-1.051,0.319-1.545,0.028c-0.883-0.525-1.799-0.984-2.743-1.375C789.374,249.394,788.404,249.071,787.407,248.813
			L787.407,248.813z M771.788,259.364c2.633-2.633,6.273-4.262,10.292-4.262c4.017,0,7.656,1.629,10.289,4.262
			c2.633,2.634,4.262,6.272,4.262,10.29c0,4.019-1.629,7.658-4.262,10.291c-2.633,2.632-6.272,4.261-10.289,4.261
			c-4.019,0-7.657-1.629-10.292-4.261c-2.633-2.634-4.262-6.272-4.262-10.291C767.526,265.637,769.155,261.998,771.788,259.364z"/>
	</g>
</g>
<g id="TEXTS">
</g>
</svg>
